HIERARCHY
ROOT hip
{
  OFFSET 0 90.174 2.4664
  CHANNELS 6 Xposition Yposition Zposition Zrotation Xrotation Yrotation
  JOINT abdomen
  {
    OFFSET 0 -1.186 -1.5018
    CHANNELS 6 Xposition Yposition Zposition Zrotation Xrotation Yrotation
    JOINT abdomen2
    {
      OFFSET 0 9.964 0.2134
      CHANNELS 6 Xposition Yposition Zposition Zrotation Xrotation Yrotation
      JOINT chest
      {
        OFFSET 0 13.134 -3.2573
        CHANNELS 6 Xposition Yposition Zposition Zrotation Xrotation Yrotation
        JOINT neck
        {
          OFFSET 0 20.686 -1.6905
          CHANNELS 6 Xposition Yposition Zposition Zrotation Xrotation Yrotation
          JOINT head
          {
            OFFSET 0 7.238 -0.1237
            CHANNELS 6 Xposition Yposition Zposition Zrotation Xrotation Yrotation
            End Site
            {
              OFFSET 0 0 0
            }
          }
        }
        JOINT lCollar
        {
          OFFSET 1.7069 20.075 5.0056
          CHANNELS 6 Xposition Yposition Zposition Zrotation Xrotation Yrotation
          JOINT lShldr
          {
            OFFSET 13.6458 -0.047 -4.849
            CHANNELS 6 Xposition Yposition Zposition Zrotation Xrotation Yrotation
            JOINT lForeArm
            {
              OFFSET 28.3255 -0.9759 2.2888
              CHANNELS 6 Xposition Yposition Zposition Zrotation Xrotation Yrotation
              JOINT lHand
              {
                OFFSET 22.1583 -0.53 10.8316
                CHANNELS 6 Xposition Yposition Zposition Zrotation Xrotation Yrotation
                JOINT lThumb1
                {
                  OFFSET 0.786 0.112 2.5817
                  CHANNELS 6 Xposition Yposition Zposition Zrotation Xrotation Yrotation
                  JOINT lThumb2
                  {
                    OFFSET 0.3601 -0.878 4.2331
                    CHANNELS 6 Xposition Yposition Zposition Zrotation Xrotation Yrotation
                    JOINT lThumb2_End
                    {
                      OFFSET 1.8127 -1.216 2.2227
                      CHANNELS 6 Xposition Yposition Zposition Zrotation Xrotation Yrotation
                      End Site
                      {
                        OFFSET 0.0181 -0.0122 0.0222
                      }
                    }
                  }
                }
                JOINT lCarpal1
                {
                  OFFSET 0.9571 1.114 1.7695
                  CHANNELS 6 Xposition Yposition Zposition Zrotation Xrotation Yrotation
                  JOINT lIndex1
                  {
                    OFFSET 4.1246 0.487 4.1451
                    CHANNELS 6 Xposition Yposition Zposition Zrotation Xrotation Yrotation
                    JOINT lIndex2
                    {
                      OFFSET 3.4052 -1.454 2.7682
                      CHANNELS 6 Xposition Yposition Zposition Zrotation Xrotation Yrotation
                      JOINT lIndex2_End
                      {
                        OFFSET 1.4531 -1.795 1.2713
                        CHANNELS 6 Xposition Yposition Zposition Zrotation Xrotation Yrotation
                        End Site
                        {
                          OFFSET 0.0145 -0.0179 0.0127
                        }
                      }
                    }
                  }
                  JOINT lMid1
                  {
                    OFFSET 5.6954 0.21 2.1184
                    CHANNELS 6 Xposition Yposition Zposition Zrotation Xrotation Yrotation
                    JOINT lMid2
                    {
                      OFFSET 3.9766 -1.54 2.3863
                      CHANNELS 6 Xposition Yposition Zposition Zrotation Xrotation Yrotation
                      JOINT lMid2_End
                      {
                        OFFSET 1.4042 -1.926 1.125
                        CHANNELS 6 Xposition Yposition Zposition Zrotation Xrotation Yrotation
                        End Site
                        {
                          OFFSET 0.014 -0.0193 0.0113
                        }
                      }
                    }
                  }
                }
                JOINT lCarpal2
                {
                  OFFSET 2.0956 0.66 -0.3894
                  CHANNELS 6 Xposition Yposition Zposition Zrotation Xrotation Yrotation
                  JOINT lRing1
                  {
                    OFFSET 5.0395 -0.09 2.4971
                    CHANNELS 6 Xposition Yposition Zposition Zrotation Xrotation Yrotation
                    JOINT lRing2
                    {
                      OFFSET 3.7921 -1.552 1.4806
                      CHANNELS 6 Xposition Yposition Zposition Zrotation Xrotation Yrotation
                      JOINT lRing2_End
                      {
                        OFFSET 1.4655 -1.808 0.9609
                        CHANNELS 6 Xposition Yposition Zposition Zrotation Xrotation Yrotation
                        End Site
                        {
                          OFFSET 0.0147 -0.0181 0.0096
                        }
                      }
                    }
                  }
                  JOINT lPinky1
                  {
                    OFFSET 4.9141 -1.269 0.3591
                    CHANNELS 6 Xposition Yposition Zposition Zrotation Xrotation Yrotation
                    JOINT lPinky2
                    {
                      OFFSET 3.1477 -1.685 0.8462
                      CHANNELS 6 Xposition Yposition Zposition Zrotation Xrotation Yrotation
                      JOINT lPinky2_End
                      {
                        OFFSET 0.8055 -1.585 0.7955
                        CHANNELS 6 Xposition Yposition Zposition Zrotation Xrotation Yrotation
                        End Site
                        {
                          OFFSET 0.0081 -0.0158 0.008
                        }
                      }
                    }
                  }
                }
              }
            }
          }
        }
        JOINT rCollar
        {
          OFFSET -1.7069 20.075 5.0056
          CHANNELS 6 Xposition Yposition Zposition Zrotation Xrotation Yrotation
          JOINT rShldr
          {
            OFFSET -13.6458 -0.047 -4.849
            CHANNELS 6 Xposition Yposition Zposition Zrotation Xrotation Yrotation
            JOINT rForeArm
            {
              OFFSET -28.3255 -0.9759 2.2888
              CHANNELS 6 Xposition Yposition Zposition Zrotation Xrotation Yrotation
              JOINT rHand
              {
                OFFSET -22.1583 -0.53 10.8316
                CHANNELS 6 Xposition Yposition Zposition Zrotation Xrotation Yrotation
                JOINT rThumb1
                {
                  OFFSET -0.786 0.112 2.5817
                  CHANNELS 6 Xposition Yposition Zposition Zrotation Xrotation Yrotation
                  JOINT rThumb2
                  {
                    OFFSET -0.3601 -0.878 4.2331
                    CHANNELS 6 Xposition Yposition Zposition Zrotation Xrotation Yrotation
                    JOINT rThumb2_End
                    {
                      OFFSET -1.8127 -1.216 2.2227
                      CHANNELS 6 Xposition Yposition Zposition Zrotation Xrotation Yrotation
                      End Site
                      {
                        OFFSET -0.0181 -0.0122 0.0222
                      }
                    }
                  }
                }
                JOINT rCarpal1
                {
                  OFFSET -0.9571 1.114 1.7695
                  CHANNELS 6 Xposition Yposition Zposition Zrotation Xrotation Yrotation
                  JOINT rIndex1
                  {
                    OFFSET -4.1246 0.487 4.1451
                    CHANNELS 6 Xposition Yposition Zposition Zrotation Xrotation Yrotation
                    JOINT rIndex2
                    {
                      OFFSET -3.4052 -1.454 2.7682
                      CHANNELS 6 Xposition Yposition Zposition Zrotation Xrotation Yrotation
                      JOINT rIndex2_End
                      {
                        OFFSET -1.4531 -1.795 1.2713
                        CHANNELS 6 Xposition Yposition Zposition Zrotation Xrotation Yrotation
                        End Site
                        {
                          OFFSET -0.0145 -0.018 0.0127
                        }
                      }
                    }
                  }
                  JOINT rMid1
                  {
                    OFFSET -5.6954 0.21 2.1184
                    CHANNELS 6 Xposition Yposition Zposition Zrotation Xrotation Yrotation
                    JOINT rMid2
                    {
                      OFFSET -3.9766 -1.54 2.3863
                      CHANNELS 6 Xposition Yposition Zposition Zrotation Xrotation Yrotation
                      JOINT rMid2_End
                      {
                        OFFSET -1.4042 -1.926 1.125
                        CHANNELS 6 Xposition Yposition Zposition Zrotation Xrotation Yrotation
                        End Site
                        {
                          OFFSET -0.014 -0.0193 0.0113
                        }
                      }
                    }
                  }
                }
                JOINT rCarpal2
                {
                  OFFSET -2.0956 0.66 -0.3894
                  CHANNELS 6 Xposition Yposition Zposition Zrotation Xrotation Yrotation
                  JOINT rRing1
                  {
                    OFFSET -5.0395 -0.09 2.4971
                    CHANNELS 6 Xposition Yposition Zposition Zrotation Xrotation Yrotation
                    JOINT rRing2
                    {
                      OFFSET -3.7921 -1.552 1.4806
                      CHANNELS 6 Xposition Yposition Zposition Zrotation Xrotation Yrotation
                      JOINT rRing2_End
                      {
                        OFFSET -1.4655 -1.808 0.9609
                        CHANNELS 6 Xposition Yposition Zposition Zrotation Xrotation Yrotation
                        End Site
                        {
                          OFFSET -0.0147 -0.0181 0.0096
                        }
                      }
                    }
                  }
                  JOINT rPinky1
                  {
                    OFFSET -4.9141 -1.269 0.3592
                    CHANNELS 6 Xposition Yposition Zposition Zrotation Xrotation Yrotation
                    JOINT rPinky2
                    {
                      OFFSET -3.1477 -1.685 0.8462
                      CHANNELS 6 Xposition Yposition Zposition Zrotation Xrotation Yrotation
                      JOINT rPinky2_End
                      {
                        OFFSET -0.8055 -1.585 0.7955
                        CHANNELS 6 Xposition Yposition Zposition Zrotation Xrotation Yrotation
                        End Site
                        {
                          OFFSET -0.0081 -0.0158 0.008
                        }
                      }
                    }
                  }
                }
              }
            }
          }
        }
      }
    }
  }
  JOINT lThigh
  {
    OFFSET 8.367 -8.2066 0.5982
    CHANNELS 6 Xposition Yposition Zposition Zrotation Xrotation Yrotation
    JOINT lShin
    {
      OFFSET 2.1923 -43.463 -0.4932
      CHANNELS 6 Xposition Yposition Zposition Zrotation Xrotation Yrotation
      JOINT lFoot
      {
        OFFSET 0.7333 -45.8593 -2.6451
        CHANNELS 6 Xposition Yposition Zposition Zrotation Xrotation Yrotation
        End Site
        {
          OFFSET 2.6618 -4.2699 12.3931
        }
      }
    }
  }
  JOINT rThigh
  {
    OFFSET -8.367 -8.2066 0.5982
    CHANNELS 6 Xposition Yposition Zposition Zrotation Xrotation Yrotation
    JOINT rShin
    {
      OFFSET -2.1923 -43.463 -0.4931
      CHANNELS 6 Xposition Yposition Zposition Zrotation Xrotation Yrotation
      JOINT rFoot
      {
        OFFSET -0.7333 -45.8593 -2.6451
        CHANNELS 6 Xposition Yposition Zposition Zrotation Xrotation Yrotation
        End Site
        {
          OFFSET -2.6618 -4.2699 12.3931
        }
      }
    }
  }
}
MOTION
Frames:	4
Frame Time:	0.0333333
0 90.174 2.4664 0 0 -0 0 -1.186 -1.5018 0 0 -0 0 9.964 0.2134 0 0 -0 0 13.134 -3.2573 0 0 -0 0 20.686 -1.6905 0 0 -0 0 7.238 -0.1237 0 0 -0 1.7069 20.075 5.0056 0 0 -0 13.6458 -0.047 -4.849 1.66051 0.0835086 5.75766 28.3255 -0.9759 2.2888 -0.0175111 0.895433 15.7816 22.1583 -0.53 10.8316 7.95139e-016 -1.98785e-016 -0 0.786 0.112 2.5817 5.46658e-016 -3.97569e-016 -0 0.3601 -0.878 4.2331 5.96354e-016 0 -0 1.8127 -1.216 2.2227 3.97569e-016 1.98785e-016 9.54166e-015 0.9571 1.114 1.7695 1.49089e-016 -3.97569e-016 -0 4.1246 0.487 4.1451 6.4605e-016 0 3.18055e-015 3.4052 -1.454 2.7682 5.96354e-016 0 3.18055e-015 1.4531 -1.795 1.2713 8.94531e-016 -1.98785e-016 6.36111e-015 5.6954 0.21 2.1184 6.4605e-016 0 3.18055e-015 3.9766 -1.54 2.3863 5.96354e-016 0 3.18055e-015 1.4042 -1.926 1.125 8.94531e-016 -1.98785e-016 6.36111e-015 2.0956 0.66 -0.3894 1.49089e-016 -3.97569e-016 -0 5.0395 -0.09 2.4971 6.4605e-016 0 3.18055e-015 3.7921 -1.552 1.4806 5.96354e-016 0 3.18055e-015 1.4655 -1.808 0.9609 8.94531e-016 -1.98785e-016 6.36111e-015 4.9141 -1.269 0.3591 6.4605e-016 0 3.18055e-015 3.1477 -1.685 0.8462 5.96354e-016 0 3.18055e-015 0.8055 -1.585 0.7955 8.94531e-016 -1.98785e-016 6.36111e-015 -1.7069 20.075 5.0056 0 0 -0 -13.6458 -0.047 -4.849 -1.4496 0.0636048 -5.0245 -28.3255 -0.9759 2.2888 -1.74811 1.20616 -16.8394 -22.1583 -0.53 10.8316 -1.19271e-015 1.98785e-016 -3.18055e-015 -0.786 0.112 2.5817 -3.97569e-016 1.98785e-016 -3.18055e-015 -0.3601 -0.878 4.2331 -2.98177e-016 1.98785e-016 -3.18055e-015 -1.8127 -1.216 2.2227 -2.98177e-016 3.97569e-016 -0 -0.9571 1.114 1.7695 4.96962e-016 0 -6.36111e-015 -4.1246 0.487 4.1451 -9.93923e-017 3.97569e-016 -0 -3.4052 -1.454 2.7682 -8.94531e-016 5.96354e-016 -0 -1.4531 -1.795 1.2713 -3.97569e-016 3.97569e-016 -0 -5.6954 0.21 2.1184 -9.93923e-017 3.97569e-016 -0 -3.9766 -1.54 2.3863 -8.94531e-016 5.96354e-016 -0 -1.4042 -1.926 1.125 -3.97569e-016 3.97569e-016 -0 -2.0956 0.66 -0.3894 4.96962e-016 0 -6.36111e-015 -5.0395 -0.09 2.4971 -9.93923e-017 3.97569e-016 -0 -3.7921 -1.552 1.4806 -8.94531e-016 5.96354e-016 -0 -1.4655 -1.808 0.9609 -3.97569e-016 3.97569e-016 -0 -4.9141 -1.269 0.3592 -9.93923e-017 3.97569e-016 -0 -3.1477 -1.685 0.8462 -8.94531e-016 5.96354e-016 -0 -0.8055 -1.585 0.7955 -3.97569e-016 3.97569e-016 -0 8.367 -8.2066 0.5982 -4.66115 -1.03232 0.120763 2.1923 -43.463 -0.4932 0.00990601 1.55097 0.177175 0.7333 -45.8593 -2.6451 4.65196 -0.54114 -0.255042 -8.367 -8.2066 0.5982 4.66115 -1.03222 -0.120763 -2.1923 -43.463 -0.4931 -0.00990459 1.5509 -0.177176 -0.7333 -45.8593 -2.6451 -4.65196 -0.541171 0.255041 
7.4478 16.9185 -0.651545 -59.2287 -38.8878 110.357 -1.77636e-015 -1.186 -1.5018 0.270753 -2.96839 -0.0886854 8.88178e-016 9.964 0.2134 0.537971 -5.93704 -0.163623 0 13.134 -3.2573 0.537973 -5.93706 -0.163624 0 20.686 -1.6905 2.85775e-005 7.36591 4.87156e-007 0 7.238 -0.1237 2.82135e-006 -41.3307 1.66587e-005 1.7069 20.075 5.0056 19.0632 -27.4434 7.77997 13.6458 -0.047 -4.849 -33.4042 -8.27849 -26.5449 28.3255 -0.9759 2.2888 -2.76722 -37.7611 -53.9859 22.1583 -0.53 10.8316 -10.7435 -4.46734 16.9692 0.786 0.112 2.5817 4.77819e-006 2.77807e-006 3.11828e-006 0.3601 -0.878 4.2331 -3.18055e-015 3.57812e-015 -5.56597e-015 1.8127 -1.216 2.2227 1.25753e-006 -9.87059e-007 -5.63016e-007 0.9571 1.114 1.7695 3.18055e-015 3.57812e-015 -7.95139e-016 4.1246 0.487 4.1451 4.77819e-006 2.77807e-006 3.11828e-006 3.4052 -1.454 2.7682 -8.82781e-032 -1.59028e-015 -3.18055e-015 1.4531 -1.795 1.2713 1.25753e-006 -9.87059e-007 -5.63016e-007 5.6954 0.21 2.1184 4.77819e-006 2.77807e-006 3.11828e-006 3.9766 -1.54 2.3863 -8.82781e-032 -1.59028e-015 -3.18055e-015 1.4042 -1.926 1.125 1.25753e-006 -9.87059e-007 -5.63016e-007 2.0956 0.66 -0.3894 3.18055e-015 3.57812e-015 -7.95139e-016 5.0395 -0.09 2.4971 4.77819e-006 2.77807e-006 3.11828e-006 3.7921 -1.552 1.4806 -8.82781e-032 -1.59028e-015 -3.18055e-015 1.4655 -1.808 0.9609 1.25753e-006 -9.87059e-007 -5.63016e-007 4.9141 -1.269 0.3591 4.77819e-006 2.77807e-006 3.11828e-006 3.1477 -1.685 0.8462 -8.82781e-032 -1.59028e-015 -3.18055e-015 0.8055 -1.585 0.7955 1.25753e-006 -9.87059e-007 -5.63016e-007 -1.7069 20.075 5.0056 -19.2238 -27.4882 -7.44059 -13.6458 -0.047 -4.849 33.6074 -8.09176 27.2271 -28.3255 -0.9759 2.2888 1.06931 -39.4485 52.6714 -22.1583 -0.53 10.8316 10.3484 -3.99475 -17.6021 -0.786 0.112 2.5817 8.82781e-032 3.18055e-015 -1.59028e-015 -0.3601 -0.878 4.2331 2.64834e-031 3.18055e-015 -4.77083e-015 -1.8127 -1.216 2.2227 7.95139e-016 -9.54166e-015 -0 -0.9571 1.114 1.7695 -7.95139e-016 3.18055e-015 -1.59028e-015 -4.1246 0.487 4.1451 2.38542e-015 6.36111e-015 -1.59028e-015 -3.4052 -1.454 2.7682 7.95139e-016 -6.36111e-015 -1.59028e-015 -1.4531 -1.795 1.2713 2.38542e-015 -6.36111e-015 1.59028e-015 -5.6954 0.21 2.1184 2.38542e-015 6.36111e-015 -1.59028e-015 -3.9766 -1.54 2.3863 7.95139e-016 -6.36111e-015 -1.59028e-015 -1.4042 -1.926 1.125 2.38542e-015 -6.36111e-015 1.59028e-015 -2.0956 0.66 -0.3894 -7.95139e-016 3.18055e-015 -1.59028e-015 -5.0395 -0.09 2.4971 2.38542e-015 6.36111e-015 -1.59028e-015 -3.7921 -1.552 1.4806 7.95139e-016 -6.36111e-015 -1.59028e-015 -1.4655 -1.808 0.9609 2.38542e-015 -6.36111e-015 1.59028e-015 -4.9141 -1.269 0.3592 2.38542e-015 6.36111e-015 -1.59028e-015 -3.1477 -1.685 0.8462 7.95139e-016 -6.36111e-015 -1.59028e-015 -0.8055 -1.585 0.7955 2.38542e-015 -6.36111e-015 1.59028e-015 8.367 -8.2066 0.5982 0.943937 -3.20963 3.61824 2.1923 -43.463 -0.4932 8.59104 67.39 -6.81401 0.7333 -45.8593 -2.6451 10.1518 47.0839 0.902719 -8.367 -8.2066 0.5982 0.416359 -1.94306 -3.59597 -2.1923 -43.463 -0.4931 -9.74745 68.1302 7.32634 -0.7333 -45.8593 -2.6451 -9.32914 47.6113 -1.57375 
-1.53516 -16.7104 2.03915 117.661 -75.3762 -63.373 0 -1.186 -1.5018 0.382627 -4.2754 -0.148613 8.88178e-016 9.964 0.2134 0.757274 -8.55168 -0.26963 0 13.134 -3.2573 0.757274 -8.55166 -0.269629 2.66454e-015 20.686 -1.6905 -1.68018e-005 10.8432 7.00369e-006 1.77636e-015 7.238 -0.1237 -1.9309e-006 -60.6913 -3.46361e-006 1.7069 20.075 5.0056 30.8378 -39.4428 13.1041 13.6458 -0.047 -4.849 -51.8769 -9.90295 -41.448 28.3255 -0.9759 2.2888 -10.8151 -20.0545 -75.4911 22.1583 -0.53 10.8316 -13.8971 -6.54485 24.8395 0.786 0.112 2.5817 -3.84926e-006 -4.70728e-006 3.07137e-007 0.3601 -0.878 4.2331 -1.48405e-006 -2.94494e-006 -2.53302e-007 1.8127 -1.216 2.2227 2.60493e-006 -3.10021e-007 4.98373e-006 0.9571 1.114 1.7695 -8.82781e-031 -7.95139e-015 -6.36111e-015 4.1246 0.487 4.1451 -3.84926e-006 -4.70728e-006 3.07137e-007 3.4052 -1.454 2.7682 -1.48405e-006 -2.94494e-006 -2.53302e-007 1.4531 -1.795 1.2713 2.60493e-006 -3.10021e-007 4.98373e-006 5.6954 0.21 2.1184 -3.84926e-006 -4.70728e-006 3.07137e-007 3.9766 -1.54 2.3863 -1.48405e-006 -2.94494e-006 -2.53302e-007 1.4042 -1.926 1.125 2.60493e-006 -3.10021e-007 4.98373e-006 2.0956 0.66 -0.3894 -8.82781e-031 -7.95139e-015 -6.36111e-015 5.0395 -0.09 2.4971 -3.84926e-006 -4.70728e-006 3.07137e-007 3.7921 -1.552 1.4806 -1.48405e-006 -2.94494e-006 -2.53302e-007 1.4655 -1.808 0.9609 2.60493e-006 -3.10021e-007 4.98373e-006 4.9141 -1.269 0.3591 -3.84926e-006 -4.70728e-006 3.07137e-007 3.1477 -1.685 0.8462 -1.48405e-006 -2.94494e-006 -2.53302e-007 0.8055 -1.585 0.7955 2.60493e-006 -3.10021e-007 4.98373e-006 -1.7069 20.075 5.0056 -30.9458 -39.5431 -12.5471 -13.6458 -0.047 -4.849 52.0189 -9.66582 42.0874 -28.3255 -0.9759 2.2888 10.0584 -21.7208 74.7084 -22.1583 -0.53 10.8316 13.3376 -5.85365 -25.7363 -0.786 0.112 2.5817 2.5824e-006 -1.6674e-006 -6.50185e-007 -0.3601 -0.878 4.2331 4.72067e-006 -3.7873e-007 9.01533e-006 -1.8127 -1.216 2.2227 -4.72067e-006 3.78731e-007 -9.01533e-006 -0.9571 1.114 1.7695 -3.18055e-015 -5.56597e-015 -6.36111e-015 -4.1246 0.487 4.1451 2.5824e-006 -1.6674e-006 -6.50185e-007 -3.4052 -1.454 2.7682 4.72067e-006 -3.7873e-007 9.01533e-006 -1.4531 -1.795 1.2713 -4.72067e-006 3.78731e-007 -9.01533e-006 -5.6954 0.21 2.1184 2.5824e-006 -1.6674e-006 -6.50185e-007 -3.9766 -1.54 2.3863 4.72067e-006 -3.7873e-007 9.01533e-006 -1.4042 -1.926 1.125 -4.72067e-006 3.78731e-007 -9.01533e-006 -2.0956 0.66 -0.3894 -3.18055e-015 -5.56597e-015 -6.36111e-015 -5.0395 -0.09 2.4971 2.5824e-006 -1.6674e-006 -6.50185e-007 -3.7921 -1.552 1.4806 4.72067e-006 -3.7873e-007 9.01533e-006 -1.4655 -1.808 0.9609 -4.72067e-006 3.78731e-007 -9.01533e-006 -4.9141 -1.269 0.3592 2.5824e-006 -1.6674e-006 -6.50185e-007 -3.1477 -1.685 0.8462 4.72067e-006 -3.7873e-007 9.01533e-006 -0.8055 -1.585 0.7955 -4.72067e-006 3.78731e-007 -9.01533e-006 8.367 -8.2066 0.5982 3.51633 -5.45344 6.21538 2.1923 -43.463 -0.4932 145.169 79.845 -140.398 0.7333 -45.8593 -2.6451 11.2514 68.7903 2.58481 -8.367 -8.2066 0.5982 -1.54096 -3.56708 -6.25997 -2.1923 -43.463 -0.4931 -148.18 78.9791 142.347 -0.7333 -45.8593 -2.6451 -9.08826 69.5964 -4.45634 
0.121643 -9.44551 0.272397 -90.3963 -89.7304 89.3514 -1.38778e-017 -1.186 -1.5018 0.358743 -3.92174 -0.133888 4.16334e-017 9.964 0.2134 0.71078 -7.84421 -0.243955 -5.55112e-017 13.134 -3.2573 0.71078 -7.84425 -0.243955 0 20.686 -1.6905 -1.43067e-005 10.4324 9.85032e-007 0 7.238 -0.1237 -4.99142e-007 -58.083 -4.79491e-007 1.7069 20.075 5.0056 28.1713 -36.968 11.9865 13.6458 -0.047 -4.849 -47.6722 -9.70998 -38.1259 28.3255 -0.9759 2.2888 -10.2525 -24.976 -73.0554 22.1583 -0.53 10.8316 -13.2882 -6.09747 23.0773 0.786 0.112 2.5817 4.25803e-006 -3.36734e-007 -2.00842e-006 0.3601 -0.878 4.2331 3.18055e-015 -6.36111e-015 -0 1.8127 -1.216 2.2227 3.97252e-031 -7.15625e-015 3.18055e-015 0.9571 1.114 1.7695 0 3.18055e-015 -0 4.1246 0.487 4.1451 4.25803e-006 -3.36734e-007 -2.00842e-006 3.4052 -1.454 2.7682 3.18055e-015 -1.66979e-014 -0 1.4531 -1.795 1.2713 -6.36111e-015 -5.56597e-015 -3.18055e-015 5.6954 0.21 2.1184 4.25803e-006 -3.36734e-007 -2.00842e-006 3.9766 -1.54 2.3863 3.18055e-015 -1.66979e-014 -0 1.4042 -1.926 1.125 -6.36111e-015 -5.56597e-015 -3.18055e-015 2.0956 0.66 -0.3894 0 3.18055e-015 -0 5.0395 -0.09 2.4971 4.25803e-006 -3.36734e-007 -2.00842e-006 3.7921 -1.552 1.4806 3.18055e-015 -1.66979e-014 -0 1.4655 -1.808 0.9609 -6.36111e-015 -5.56597e-015 -3.18055e-015 4.9141 -1.269 0.3591 4.25803e-006 -3.36734e-007 -2.00842e-006 3.1477 -1.685 0.8462 3.18055e-015 -1.66979e-014 -0 0.8055 -1.585 0.7955 -6.36111e-015 -5.56597e-015 -3.18055e-015 -1.7069 20.075 5.0056 -28.2995 -37.054 -11.4833 -13.6458 -0.047 -4.849 47.8301 -9.4806 38.7756 -28.3255 -0.9759 2.2888 9.3902 -26.674 72.2736 -22.1583 -0.53 10.8316 12.7642 -5.45577 -23.9174 -0.786 0.112 2.5817 2.40985e-006 -1.8598e-006 -5.55645e-007 -0.3601 -0.878 4.2331 -6.36111e-015 3.18055e-015 3.18055e-015 -1.8127 -1.216 2.2227 -1.59028e-015 3.97569e-015 3.18055e-015 -0.9571 1.114 1.7695 -3.18055e-015 7.95139e-015 3.18055e-015 -4.1246 0.487 4.1451 2.40985e-006 -1.8598e-006 -5.55645e-007 -3.4052 -1.454 2.7682 -1.59028e-015 5.56597e-015 6.36111e-015 -1.4531 -1.795 1.2713 1.59028e-015 -1.59028e-015 3.18055e-015 -5.6954 0.21 2.1184 2.40985e-006 -1.8598e-006 -5.55645e-007 -3.9766 -1.54 2.3863 -1.59028e-015 5.56597e-015 6.36111e-015 -1.4042 -1.926 1.125 1.59028e-015 -1.59028e-015 3.18055e-015 -2.0956 0.66 -0.3894 -3.18055e-015 7.95139e-015 3.18055e-015 -5.0395 -0.09 2.4971 2.40985e-006 -1.8598e-006 -5.55645e-007 -3.7921 -1.552 1.4806 -1.59028e-015 5.56597e-015 6.36111e-015 -1.4655 -1.808 0.9609 1.59028e-015 -1.59028e-015 3.18055e-015 -4.9141 -1.269 0.3592 2.40985e-006 -1.8598e-006 -5.55645e-007 -3.1477 -1.685 0.8462 -1.59028e-015 5.56597e-015 6.36111e-015 -0.8055 -1.585 0.7955 1.59028e-015 -1.59028e-015 3.18055e-015 8.367 -8.2066 0.5982 2.93055 -4.93206 5.51812 2.1923 -43.463 -0.4932 105.817 84.5021 -101.874 0.7333 -45.8593 -2.6451 11.2689 63.9614 1.95232 -8.367 -8.2066 0.5982 -1.09096 -3.17846 -5.5365 -2.1923 -43.463 -0.4931 -114.712 84.0584 109.815 -0.7333 -45.8593 -2.6451 -9.586 64.7034 -3.37301 
